/* XPM */
static char * dxcomm_xpm[] = {
"24 24 3 1",
" 	c None",
".	c #608591",
"+	c #000000",
"                        ",
"                        ",
"                        ",
"                        ",
"                ..     .",
"     ++          ..    .",
"     ++    +++++++..  ..",
"     ++    +++++++..  ..",
"     ++      ++   .. ...",
"     ++      ++   .. ...",
"     ++      ++   ..... ",
"  +++++      ++    ...  ",
"  +++++ ++++ ++    ..   ",
"  ++  + ++ + ++   ...   ",
"  ++  + ++ + ++   ...   ",
"  ++  + ++ + ++  .....  ",
"  ++  + ++ + ++  .. ..  ",
"  ++  + ++ + ++  .. ... ",
"  ++  + ++ + ++ ...  ...",
"  +++++ ++++ ++ ..   ...",
"                ..   ...",
"                .    . .",
"                        ",
"                        "};
